<svg id="svg" version="1.1" width="400" height="130" viewBox="0 0 400 130" xmlns="http://www.w3.org/2000/svg" xmlns:xlink="http://www.w3.org/1999/xlink"><g><path id="formula" d="M 5.125,2.238 C 4.14,3.38 3.333,4.356 3.333,4.407 3.333,4.708 3.955,4.363 5.265,3.336 7.067,1.923 6.775,1.923 8.582,3.341 10.82,5.099 10.512,4.456 7.25,0.559 L 6.917,0.161 5.125,2.238 M 305.541,1.996 c -0.859,0.39 -1.444,0.994 -1.976,2.042 -0.935,1.84 -0.952,2.056 -1.054,12.962 -0.107,11.397 -0.084,11.199 -1.344,11.604 -0.671,0.216 -0.976,1.063 -0.382,1.063 0.5,0 1.063,0.496 1.396,1.23 0.292,0.644 0.312,1.267 0.319,10.02 0.008,11.079 0.182,12.678 1.583,14.514 0.998,1.308 2.781,1.943 2.886,1.027 C 307.014,56.07 306.96,56 306.619,56 c -1.055,0 -2.232,-1.534 -2.622,-3.417 -0.099,-0.477 -0.211,-4.575 -0.261,-9.583 -0.108,-10.741 -0.196,-11.473 -1.589,-13.214 l -0.505,-0.631 0.529,-0.602 c 1.365,-1.555 1.461,-2.365 1.555,-13.136 C 303.808,6.084 303.884,5.274 304.82,3.798 305.268,3.092 306.141,2.5 306.734,2.5 306.907,2.5 307,2.354 307,2.083 307,1.562 306.555,1.535 305.541,1.996 M 48.604,2.429 C 45.991,3.264 44.16,5.686 43.166,9.625 l -0.179,0.708 h -1.414 c -1.365,0 -1.42,0.015 -1.577,0.428 -0.329,0.864 -0.272,0.906 1.244,0.906 0.774,0 1.444,0.059 1.488,0.131 0.124,0.2 -1.471,7.768 -1.956,9.285 -0.987,3.085 -2.412,4.302 -3.219,2.75 -1.05,-2.02 -3.22,-2.02 -3.22,0 0,2.462 4.446,2.418 6.931,-0.068 1.761,-1.763 2.736,-4.213 3.768,-9.473 l 0.515,-2.625 h 1.789 1.789 l 0.103,-0.517 c 0.155,-0.775 0.062,-0.817 -1.801,-0.817 h -1.72 l 0.242,-1.291 c 0.805,-4.301 2.915,-7.175 3.809,-5.19 0.864,1.914 2.691,2.302 3.253,0.689 C 53.614,2.81 51.134,1.621 48.604,2.429 M 58.76,2.917 c -4.796,5.104 -4.897,18.194 -0.179,23.365 0.864,0.946 1.508,1.159 0.778,0.257 C 55.421,21.669 55.233,8.452 59.03,3.367 59.922,2.173 59.742,1.872 58.76,2.917 m 58.246,-0.469 c -0.003,0.201 0.076,0.417 0.177,0.479 0.101,0.062 0.477,0.566 0.835,1.12 3.023,4.678 2.905,17.119 -0.206,21.635 -1.238,1.796 -0.914,1.941 0.516,0.23 4.343,-5.199 4.093,-18.093 -0.443,-22.903 -0.734,-0.778 -0.874,-0.867 -0.879,-0.561 M 0.198,7.124 c 0.039,0.199 0.298,0.334 0.826,0.431 l 0.769,0.14 0.357,1.194 c 0.196,0.657 0.791,2.541 1.322,4.187 l 0.966,2.992 -0.385,2.167 C 3.514,21.267 3.583,21.159 2.157,21.164 1.486,21.167 0.889,21.52 1.068,21.808 1.35,22.265 8,22.035 8,21.569 8,21.329 7.75,21.249 6.484,21.086 l -0.766,-0.099 0.417,-2.452 0.418,-2.452 2.657,-4 C 12.332,7.385 12.074,7.694 13.008,7.534 13.51,7.448 13.765,7.316 13.802,7.121 13.853,6.859 13.638,6.833 11.429,6.833 9.172,6.833 9,6.855 9,7.143 9,7.392 9.169,7.474 9.856,7.555 10.327,7.611 10.743,7.687 10.781,7.725 10.819,7.763 9.835,9.349 8.594,11.248 6.385,14.631 6.335,14.693 6.158,14.226 5.691,12.998 4.126,7.818 4.2,7.744 4.246,7.698 4.725,7.606 5.265,7.538 6.005,7.446 6.259,7.345 6.302,7.125 6.353,6.856 6.118,6.833 3.25,6.833 0.385,6.833 0.147,6.856 0.198,7.124 M 66.364,7.12 c 0.036,0.188 0.299,0.335 0.762,0.426 0.86,0.17 0.799,0.061 2.054,3.703 l 1.011,2.931 -0.804,1.055 c -3.911,5.135 -4.638,5.932 -5.412,5.932 -0.567,0 -1.109,0.479 -0.779,0.688 0.252,0.16 4.14,0.197 4.54,0.044 0.601,-0.23 0.176,-0.729 -0.625,-0.735 -0.904,-0.006 -0.802,-0.238 1.312,-2.966 1.15,-1.484 2.144,-2.697 2.209,-2.696 0.065,0 0.538,1.232 1.052,2.736 1.023,2.997 1.027,2.919 -0.13,2.926 -0.414,0.003 -0.938,0.453 -0.796,0.683 0.184,0.297 5.572,0.19 5.688,-0.114 0.126,-0.328 -0.135,-0.501 -0.951,-0.631 l -0.625,-0.1 -0.627,-1.793 C 73.898,18.223 73.3,16.531 72.913,15.448 l -0.703,-1.969 0.871,-1.128 c 3.441,-4.454 3.568,-4.588 4.482,-4.777 0.585,-0.12 0.87,-0.265 0.908,-0.463 0.071,-0.369 -4.473,-0.356 -4.596,0.014 -0.071,0.214 0.041,0.274 0.833,0.448 0.61,0.133 0.59,0.218 -0.333,1.389 -0.435,0.552 -1.167,1.497 -1.625,2.098 -1.058,1.389 -0.941,1.452 -1.736,-0.935 C 70.18,7.622 70.179,7.717 71.04,7.546 71.504,7.455 71.766,7.308 71.803,7.12 c 0.05,-0.262 -0.186,-0.287 -2.72,-0.287 -2.534,0 -2.769,0.025 -2.719,0.287 m 27.969,0.028 c 0,0.227 0.16,0.345 0.572,0.422 0.667,0.125 0.579,-0.17 1.188,4.013 1.566,10.765 1.594,10.906 2.11,10.708 0.123,-0.047 0.911,-1.576 1.751,-3.397 0.839,-1.821 1.882,-4.061 2.318,-4.977 l 0.793,-1.667 0.214,1.25 c 0.117,0.688 0.473,2.881 0.79,4.874 0.901,5.658 0.222,6.386 6.098,-6.541 2.058,-4.528 1.81,-4.135 2.734,-4.325 0.3,-0.061 0.537,-0.225 0.569,-0.395 0.072,-0.371 -4.305,-0.359 -4.429,0.012 -0.076,0.23 0.077,0.299 1.001,0.453 0.868,0.144 0.876,0.111 -1.088,4.422 -0.23,0.504 -0.802,1.804 -1.272,2.888 -1.165,2.688 -1.468,3.254 -1.576,2.945 -0.049,-0.137 -0.25,-1.337 -0.448,-2.666 -1.156,-7.752 -1.297,-8.191 -2.073,-6.437 -0.218,0.493 -1.049,2.312 -1.846,4.042 -0.798,1.729 -1.667,3.624 -1.932,4.21 -0.629,1.394 -0.552,1.622 -1.39,-4.089 -0.794,-5.404 -0.805,-5.178 0.26,-5.359 0.5,-0.086 0.755,-0.218 0.792,-0.413 0.051,-0.262 -0.173,-0.288 -2.54,-0.288 -2.434,0 -2.596,0.02 -2.596,0.315 m 220.335,1.797 c -4.214,2.17 -3.795,13.496 0.544,14.711 1.94,0.543 4.029,-0.141 4.975,-1.629 1.763,-2.775 1.747,-9.056 -0.031,-11.741 -1.133,-1.711 -3.599,-2.313 -5.488,-1.341 m 61.459,-0.279 c -4.329,1.304 -4.826,12.533 -0.65,14.703 3.91,2.031 6.845,-1.057 6.845,-7.202 0,-5.806 -2.355,-8.657 -6.195,-7.501 m 14.706,3.751 v 3.75 h 0.414 c 0.227,0 0.921,-0.087 1.542,-0.193 3.23,-0.55 4.772,0.54 4.759,3.365 -0.014,2.889 -1.628,4.118 -4.596,3.502 -1.181,-0.246 -1.38,-0.441 -1.619,-1.591 -0.165,-0.795 -0.242,-0.917 -0.579,-0.917 -0.383,0 -0.388,0.023 -0.308,1.375 0.108,1.832 0.036,1.731 1.396,1.96 5.014,0.846 8.09,-1.095 7.784,-4.911 -0.242,-3.019 -2.582,-4.212 -7.293,-3.717 l -0.416,0.043 V 12.75 10.417 l 3.291,-0.046 3.292,-0.045 V 9.496 8.667 h -3.833 -3.834 v 3.75 M 318.094,10.01 c 1.546,1.498 1.905,8.864 0.561,11.511 -0.998,1.964 -3.13,2.02 -4.05,0.107 -1.07,-2.228 -1.039,-8.97 0.052,-11.109 0.671,-1.316 2.348,-1.564 3.437,-0.509 m 60.524,-0.349 c 2.342,1.428 2.356,11.575 0.018,13.001 -2.762,1.683 -4.484,-2.348 -3.818,-8.937 0.382,-3.782 1.792,-5.289 3.8,-4.064 m -16.493,2.468 c -3.552,1.424 -6.458,2.643 -6.458,2.708 0,0.065 1.181,0.577 2.625,1.138 1.443,0.561 4.305,1.696 6.36,2.522 4.302,1.731 4.015,1.663 4.015,0.955 v -0.547 l -4.375,-1.733 c -6.089,-2.411 -5.946,-2.346 -5.542,-2.515 0.183,-0.076 2.471,-0.982 5.083,-2.013 2.613,-1.031 4.774,-1.89 4.803,-1.909 0.029,-0.019 0.029,-0.296 0,-0.616 l -0.053,-0.58 -6.458,2.59 m -19.458,-0.726 c 0,0.15 0.222,0.29 0.563,0.354 0.39,0.073 0.626,0.243 0.768,0.549 0.503,1.089 1.669,3.87 1.67,3.984 10e-4,0.07 -1.011,1.103 -2.25,2.297 -2.81,2.709 -2.94,3.08 -1.085,3.08 1.139,0 1.616,-0.292 0.917,-0.561 -0.567,-0.217 -0.232,-0.825 1.271,-2.302 0.837,-0.823 1.583,-1.433 1.659,-1.357 0.076,0.075 0.507,1.037 0.959,2.137 l 0.821,1.999 1.52,0.048 c 1.675,0.053 2.142,-0.256 0.843,-0.557 l -0.676,-0.157 -1.067,-2.417 -1.066,-2.417 1.899,-1.845 c 2.53,-2.459 2.716,-3.137 0.833,-3.039 -0.984,0.052 -1.39,0.346 -0.755,0.548 0.62,0.197 0.381,0.744 -0.885,2.018 -1.536,1.546 -1.398,1.584 -2.299,-0.64 l -0.76,-1.875 -1.44,-0.048 c -1.188,-0.04 -1.44,-0.005 -1.44,0.201 M 18,12.417 v 0.75 h 6.583 6.584 v -0.75 -0.75 H 24.583 18 v 0.75 m 65.364,1.619 c -0.158,0.158 0.074,0.48 1.078,1.49 l 1.281,1.288 -1.283,1.318 c -1.133,1.164 -1.252,1.345 -1.019,1.538 0.229,0.19 0.427,0.059 1.467,-0.975 1.461,-1.452 1.262,-1.452 2.732,0.008 1.139,1.131 1.229,1.187 1.494,0.921 0.265,-0.265 0.204,-0.359 -1.013,-1.561 l -1.295,-1.278 1.273,-1.281 c 1.133,-1.14 1.244,-1.305 1.005,-1.504 -0.235,-0.195 -0.422,-0.071 -1.472,0.972 -1.464,1.454 -1.334,1.453 -2.6,0.028 -1.056,-1.187 -1.288,-1.324 -1.648,-0.964 m 162.849,2.311 c -2.374,0.752 -4.257,3.321 -5.214,7.111 l -0.179,0.709 h -1.4 c -1.512,0 -1.492,-0.01 -1.664,0.791 L 237.64,25.5 h 1.513 c 0.833,0 1.514,0.048 1.514,0.106 0,1.69 -2.225,10.228 -2.972,11.406 -1.058,1.667 -1.646,1.814 -2.339,0.585 -0.837,-1.483 -1.921,-1.881 -2.78,-1.021 -1.345,1.344 0.308,3.12 2.674,2.874 4.019,-0.419 6.078,-3.463 7.604,-11.242 l 0.532,-2.708 h 1.807 c 1.687,0 1.809,-0.022 1.835,-0.333 0.081,-0.971 0.184,-0.911 -1.704,-1 l -1.759,-0.084 0.309,-1.574 c 0.782,-3.976 2.876,-6.689 3.72,-4.82 0.937,2.08 3.306,2.24 3.306,0.224 0,-1.664 -2.131,-2.376 -4.687,-1.566 m 10.386,0.41 c -4.818,5.006 -4.88,18.27 -0.111,23.444 0.784,0.85 1.351,1.04 0.78,0.262 -2.347,-3.203 -3.02,-5.901 -3.004,-12.046 0.015,-5.624 0.732,-8.715 2.599,-11.216 0.888,-1.19 0.722,-1.468 -0.264,-0.444 M 274.5,16.171 c 0,0.1 0.266,0.531 0.591,0.957 3.628,4.751 3.716,18.05 0.15,22.642 -0.729,0.939 -0.872,1.23 -0.607,1.23 0.164,0 0.956,-0.842 1.67,-1.773 3.114,-4.066 3.632,-13.908 1.025,-19.515 -0.891,-1.917 -2.829,-4.343 -2.829,-3.541 M 18.113,17.276 C 18.051,17.338 18,17.676 18,18.028 v 0.639 h 6.593 6.593 L 31.135,17.958 31.083,17.25 24.655,17.206 c -3.536,-0.024 -6.48,0.008 -6.542,0.07 M 355.5,17.884 c 0,0.622 -0.523,0.361 5.583,2.782 1.559,0.618 3.621,1.442 4.584,1.832 0.962,0.39 2.031,0.809 2.375,0.931 l 0.625,0.223 v -0.554 c 0,-0.651 0.748,-0.293 -7.367,-3.527 -6.477,-2.58 -5.8,-2.383 -5.8,-1.687 m 29.773,3.889 c -0.889,0.889 -0.338,2.227 0.917,2.227 1.215,0 1.765,-1.428 0.869,-2.258 -0.577,-0.535 -1.232,-0.524 -1.786,0.031 m -122.94,3.63 c 0,0.15 0.222,0.29 0.564,0.354 0.389,0.073 0.626,0.243 0.768,0.549 0.504,1.092 1.668,3.87 1.67,3.984 0,0.07 -1.012,1.109 -2.25,2.31 -2.747,2.664 -2.938,3.233 -1.085,3.233 1.101,0 1.482,-0.316 0.896,-0.744 -0.452,-0.331 -0.115,-0.904 1.397,-2.377 1.675,-1.63 1.466,-1.693 2.455,0.741 1.014,2.496 0.905,2.38 2.259,2.38 1.752,0 2.33,-0.448 0.979,-0.759 l -0.681,-0.157 -1.052,-2.454 -1.053,-2.453 1.699,-1.573 c 2.639,-2.444 2.932,-3.326 1.075,-3.237 -1.039,0.05 -1.471,0.339 -0.817,0.547 0.599,0.19 0.377,0.717 -0.845,2.002 -1.503,1.583 -1.437,1.6 -2.339,-0.624 l -0.759,-1.875 -1.441,-0.048 c -1.187,-0.04 -1.44,-0.005 -1.44,0.201 m 20.866,0.805 0.051,0.709 h 6.583 6.584 l 0.051,-0.709 0.051,-0.708 h -6.686 -6.685 l 0.051,0.708 m 0.081,4.901 c -0.062,0.062 -0.113,0.401 -0.113,0.752 V 32.5 h 6.676 6.676 l -0.051,-0.708 -0.051,-0.709 -6.512,-0.043 c -3.582,-0.024 -6.563,0.007 -6.625,0.069 m 34.295,4.043 c -0.087,0.083 -1.009,0.62 -2.049,1.193 -3.01,1.659 -2.619,2.081 0.682,0.738 0.275,-0.112 0.292,0.242 0.292,6.063 v 6.181 l -0.375,0.078 c -0.206,0.043 -0.881,0.125 -1.5,0.183 -0.962,0.09 -1.125,0.152 -1.125,0.425 0,0.307 0.166,0.32 4,0.32 3.834,0 4,-0.013 4,-0.32 0,-0.273 -0.163,-0.335 -1.125,-0.425 -0.619,-0.058 -1.294,-0.14 -1.5,-0.183 L 318.5,49.327 V 42.163 35 h -0.383 c -0.211,0 -0.455,0.068 -0.542,0.152 m 58.181,0.057 c -4.777,1.261 -4.587,13.965 0.226,15.12 3.838,0.921 5.995,-1.84 6.012,-7.693 0.017,-5.662 -2.331,-8.459 -6.238,-7.427 m 14.744,3.729 v 3.772 l 1.375,-0.141 c 4.05,-0.414 5.154,0.236 5.257,3.092 0.103,2.849 -0.903,3.926 -3.549,3.798 -1.905,-0.092 -2.272,-0.311 -2.583,-1.542 -0.489,-1.936 -1.098,-1.406 -0.886,0.773 l 0.136,1.393 1.25,0.219 c 4.811,0.842 7.77,-0.932 7.733,-4.635 -0.03,-2.986 -1.531,-4.093 -5.525,-4.073 l -2.208,0.011 v -2.299 -2.299 l 3.292,-0.045 3.291,-0.045 0.051,-0.875 0.05,-0.875 h -3.842 -3.842 v 3.771 m -11.936,-2.433 c 1.639,1.439 1.991,8.985 0.549,11.772 -0.863,1.668 -3.124,1.679 -3.921,0.019 -1.027,-2.137 -1.079,-8.977 -0.085,-11.073 0.612,-1.29 2.386,-1.658 3.457,-0.718 m -22.397,2.483 v 0.981 l 1.791,0.748 c 0.986,0.411 2.842,1.178 4.125,1.703 1.284,0.526 2.388,1.005 2.455,1.064 0.067,0.06 -1.771,0.896 -4.083,1.859 l -4.205,1.75 -0.05,0.954 c -0.064,1.22 -0.527,1.327 5.55,-1.285 l 5.167,-2.221 0.049,-0.99 0.048,-0.991 -2.632,-1.103 c -1.448,-0.606 -3.72,-1.563 -5.049,-2.126 -1.329,-0.563 -2.585,-1.091 -2.791,-1.173 -0.364,-0.145 -0.375,-0.119 -0.375,0.83 m -13.5,-0.261 c 0,0.137 0.253,0.3 0.594,0.381 0.565,0.135 1.656,2.126 2.333,4.26 0.081,0.256 -0.372,0.783 -2.166,2.519 -2.83,2.739 -2.962,3.113 -1.095,3.113 1.139,0 1.616,-0.292 0.917,-0.56 -0.539,-0.207 -0.223,-0.813 1.19,-2.279 1.797,-1.864 1.646,-1.899 2.666,0.631 l 0.857,2.125 1.518,0.048 c 1.679,0.053 2.167,-0.274 0.847,-0.566 l -0.673,-0.149 -1.056,-2.441 -1.057,-2.441 1.9,-1.878 c 2.484,-2.456 2.643,-2.99 0.891,-2.99 -1.224,0 -1.524,0.371 -0.583,0.724 0.096,0.036 0.028,0.326 -0.16,0.686 -0.362,0.689 -2.44,2.604 -2.539,2.34 -0.035,-0.092 -0.389,-0.954 -0.786,-1.917 l -0.723,-1.75 -1.438,-0.048 c -1.162,-0.039 -1.437,-0.002 -1.437,0.192 m 42.272,9.618 c -0.59,0.464 -0.603,1.339 -0.03,1.913 0.557,0.557 1.315,0.544 1.849,-0.032 1.155,-1.247 -0.478,-2.935 -1.819,-1.881 M 76.433,54.208 c -2.031,2.349 -2.004,2.712 0.082,1.095 0.747,-0.579 1.45,-1.12 1.562,-1.202 0.139,-0.102 0.695,0.237 1.739,1.061 2.272,1.792 2.193,1.547 -0.649,-2.032 -0.946,-1.192 -0.68,-1.297 -2.734,1.078 M 3.234,58.692 c -0.173,0.28 0.412,0.641 1.038,0.641 0.896,0 0.956,-0.799 -0.619,8.167 -0.971,5.527 -0.846,5.189 -1.999,5.41 -0.64,0.123 -0.917,0.258 -0.957,0.465 -0.051,0.273 0.321,0.292 5.937,0.292 h 5.992 l 0.368,-1.625 c 0.203,-0.894 0.409,-1.801 0.459,-2.015 0.257,-1.104 -0.679,-0.293 -1.218,1.056 l -0.533,1.334 -0.893,0.108 C 9.735,72.656 5.09,72.701 4.971,72.582 4.888,72.499 5.047,71.5 5.673,68.191 5.853,67.242 6,66.436 6,66.399 6,66.363 6.896,66.333 7.991,66.333 h 1.992 l 0.05,0.875 c 0.136,2.358 1.467,-0.763 1.467,-3.438 0,-0.62 -0.584,-0.182 -0.917,0.688 L 10.25,65.33 8.195,65.331 6.14,65.333 6.238,64.875 c 0.054,-0.252 0.281,-1.491 0.505,-2.752 0.224,-1.262 0.452,-2.368 0.508,-2.459 0.112,-0.181 2.369,-0.192 4.582,-0.022 l 1.417,0.108 -0.06,1.222 c -0.058,1.197 -0.051,1.221 0.327,1.167 0.353,-0.051 0.919,-2.041 0.975,-3.431 C 14.503,58.419 3.413,58.403 3.234,58.692 m 33.099,0.138 c 0,0.209 0.138,0.358 0.375,0.406 1.338,0.272 1.117,-0.113 2.53,4.404 l 1.299,4.149 -0.435,2.372 c -0.512,2.79 -0.456,2.667 -1.237,2.692 -1.033,0.033 -1.607,0.215 -1.668,0.527 -0.052,0.274 0.176,0.29 3.415,0.248 2.954,-0.038 3.471,-0.082 3.471,-0.295 0,-0.177 -0.299,-0.298 -1.028,-0.416 -1.337,-0.217 -1.276,-0.004 -0.792,-2.76 l 0.423,-2.407 2.749,-4.124 c 2.255,-3.381 2.831,-4.14 3.199,-4.215 0.952,-0.191 1.281,-0.345 1.335,-0.623 0.078,-0.405 -4.706,-0.445 -4.862,-0.041 -0.119,0.31 0.371,0.586 1.039,0.586 0.947,0 0.928,0.041 -2.602,5.417 -0.482,0.733 -0.903,1.408 -0.937,1.5 -0.131,0.356 -0.341,-0.17 -1.299,-3.262 -1.084,-3.497 -1.094,-3.655 -0.241,-3.655 0.773,0 1.433,-0.266 1.433,-0.579 0,-0.218 -0.431,-0.254 -3.083,-0.254 -2.963,0 -3.084,0.013 -3.084,0.33 m 35.221,-0.063 c -0.123,0.319 0.207,0.559 0.779,0.566 0.723,0.009 0.812,0.188 2.086,4.209 1.413,4.459 1.367,4.105 0.892,6.833 -0.426,2.446 -0.385,2.384 -1.677,2.519 -0.93,0.097 -1.291,0.278 -1.298,0.651 -0.006,0.295 6.906,0.057 6.963,-0.24 0.043,-0.224 -0.134,-0.301 -0.914,-0.395 -1.436,-0.174 -1.389,-0.027 -0.886,-2.78 l 0.449,-2.454 2.721,-4.086 c 1.496,-2.247 2.839,-4.117 2.984,-4.156 0.145,-0.04 0.545,-0.119 0.889,-0.177 0.473,-0.08 0.625,-0.185 0.625,-0.431 0,-0.309 -0.13,-0.326 -2.417,-0.326 -2.256,0 -2.417,0.021 -2.417,0.314 0,0.331 0.423,0.513 1.199,0.517 0.628,0.003 0.679,0.192 0.226,0.849 -0.368,0.534 -3.45,5.266 -3.863,5.933 -0.266,0.427 -0.238,0.49 -1.386,-3.178 -1.108,-3.542 -1.11,-3.594 -0.145,-3.599 0.659,-0.004 1.303,-0.291 1.303,-0.582 0,-0.393 -5.962,-0.38 -6.113,0.013 M 18.78,63.443 c -0.062,0.062 -0.113,0.4 -0.113,0.751 v 0.639 h 6.676 6.676 l -0.051,-0.708 -0.051,-0.708 -6.512,-0.044 c -3.582,-0.024 -6.563,0.007 -6.625,0.07 M 53.833,67 v 0.5 H 60.5 67.167 V 67 66.5 H 60.5 53.833 V 67 m -35.166,2.667 v 0.666 H 25.333 32 V 69.667 69 h -6.667 -6.666 v 0.667 M 349.25,76.4 c -0.275,0.122 -0.643,0.381 -0.817,0.577 -0.441,0.494 -0.609,0.445 -0.491,-0.144 l 0.1,-0.5 h -0.938 c -0.935,0 -1.254,0.212 -0.584,0.387 0.401,0.105 0.391,0.291 -0.186,3.28 -0.501,2.594 -0.502,2.575 0.104,2.634 0.474,0.046 0.53,0.001 0.613,-0.5 0.702,-4.198 0.806,-4.458 2.028,-5.038 1.299,-0.616 1.485,0.023 0.918,3.141 -0.466,2.566 -0.498,2.43 0.576,2.43 0.972,0 1.359,-0.231 0.676,-0.402 -0.498,-0.125 -0.495,-0.041 -0.082,-2.432 0.574,-3.321 0.031,-4.293 -1.917,-3.433 M 337.5,87.749 c 0,0.274 -0.02,0.249 5.333,6.746 5.363,6.508 5.521,6.71 5.433,6.939 -0.043,0.114 -1.603,2.096 -3.464,4.403 -1.862,2.308 -4.267,5.291 -5.344,6.629 -1.077,1.337 -1.958,2.568 -1.958,2.733 0,0.387 21.279,0.479 21.42,0.093 0.042,-0.115 0.268,-1.484 0.502,-3.042 0.235,-1.558 0.47,-3.009 0.524,-3.223 0.215,-0.858 -0.623,-0.354 -0.972,0.585 -0.39,1.049 -1.295,2.015 -2.399,2.562 l -0.825,0.409 -7.375,0.051 c -4.056,0.029 -7.375,0.014 -7.375,-0.033 0,-0.046 0.769,-1.037 1.708,-2.201 0.94,-1.164 1.894,-2.349 2.122,-2.633 0.227,-0.284 1.682,-2.092 3.233,-4.017 1.552,-1.925 2.887,-3.585 2.966,-3.688 0.093,-0.12 -0.15,-0.539 -0.676,-1.167 -2.845,-3.391 -8.186,-9.976 -8.186,-10.091 0,-0.221 12.224,-0.169 13.117,0.055 1.351,0.341 2.392,1.651 2.791,3.516 0.061,0.287 0.207,0.458 0.388,0.458 0.267,0 0.221,-2.074 -0.116,-5.208 -0.029,-0.271 -20.847,-0.147 -20.847,0.124 m 29.874,15.293 0.043,13.208 0.541,0.052 0.542,0.052 v -13.26 -13.261 h -0.584 -0.585 l 0.043,13.209 m 23.959,0.052 v 13.26 l 0.542,-0.052 0.542,-0.052 0.042,-13.208 0.043,-13.209 h -0.584 -0.585 v 13.261 M 234.072,94.185 c -0.156,0.252 0.237,0.475 0.845,0.482 1.019,0.01 1.016,-0.123 0.092,5.185 -0.842,4.83 -1.272,7.22 -1.428,7.925 -0.061,0.276 -0.246,0.386 -0.789,0.47 -1.075,0.168 -1.292,0.254 -1.292,0.514 0,0.197 0.454,0.239 2.596,0.239 2.376,0 2.59,-0.025 2.539,-0.29 -0.039,-0.205 -0.283,-0.322 -0.837,-0.402 -0.43,-0.061 -0.847,-0.152 -0.928,-0.202 -0.081,-0.05 0.14,-1.688 0.491,-3.64 0.351,-1.952 0.838,-4.733 1.083,-6.18 0.244,-1.447 0.502,-2.572 0.574,-2.5 0.071,0.072 0.699,1.593 1.395,3.381 0.697,1.787 1.395,3.547 1.552,3.91 0.157,0.363 0.738,1.825 1.291,3.25 l 1.006,2.59 h 0.575 0.576 l 0.364,-2.167 c 0.201,-1.192 0.638,-3.667 0.971,-5.5 0.334,-1.833 0.719,-4.007 0.857,-4.83 0.293,-1.757 0.188,-1.592 1.09,-1.707 0.397,-0.05 0.853,-0.159 1.013,-0.241 0.708,-0.364 0.183,-0.472 -2.304,-0.472 -2.376,0 -2.59,0.025 -2.539,0.29 0.04,0.207 0.286,0.323 0.862,0.405 1.053,0.151 1.01,0 0.62,2.163 -0.446,2.476 -1.344,7.848 -1.346,8.05 -0.005,0.568 -1.058,-1.948 -4.025,-9.616 L 238.476,94 h -2.145 c -1.394,0 -2.185,0.065 -2.259,0.185 m 139.626,0.107 c 0.039,0.203 0.27,0.32 0.759,0.385 0.387,0.052 0.752,0.143 0.811,0.202 0.11,0.11 0.058,0.441 -1.124,7.121 -0.382,2.154 -0.778,4.404 -0.88,5 l -0.187,1.083 -0.664,0.141 c -0.364,0.078 -0.832,0.173 -1.038,0.212 -0.206,0.039 -0.375,0.181 -0.375,0.317 0,0.214 0.812,0.247 5.997,0.247 h 5.997 l 0.086,-0.375 c 0.887,-3.861 0.859,-3.625 0.432,-3.625 -0.245,0 -0.451,0.32 -0.874,1.353 -0.69,1.689 -0.581,1.647 -4.316,1.647 -2.629,0 -2.989,-0.032 -2.989,-0.267 0,-0.233 0.679,-4.19 0.934,-5.441 l 0.093,-0.459 h 1.987 1.986 l 0.003,0.542 c 0.007,1.845 0.646,1.714 1.028,-0.21 0.527,-2.666 0.555,-3.165 0.176,-3.165 -0.249,0 -0.41,0.218 -0.646,0.875 l -0.314,0.875 -1.901,0.047 c -2.348,0.059 -2.228,0.228 -1.753,-2.464 0.219,-1.237 0.441,-2.495 0.494,-2.795 l 0.097,-0.545 3.033,0.045 3.033,0.045 -0.059,1.209 c -0.058,1.182 -0.051,1.208 0.342,1.208 0.372,0 0.418,-0.097 0.617,-1.292 0.118,-0.71 0.254,-1.498 0.303,-1.75 L 384.875,94 h -5.616 c -5.26,0 -5.613,0.019 -5.561,0.292 m -113.137,2.906 c -0.687,1.029 -0.923,1.253 -1.547,1.467 -0.988,0.339 -1.084,0.668 -0.195,0.668 0.813,0 0.801,-0.089 0.336,2.417 -0.732,3.957 -0.821,4.527 -0.821,5.281 -10e-4,1.994 1.408,2.669 3.666,1.754 1.292,-0.523 1.244,-0.887 -0.107,-0.811 -2.008,0.112 -2.05,-0.087 -1.092,-5.224 l 0.622,-3.333 1.247,-0.084 c 1.136,-0.076 1.251,-0.116 1.3,-0.458 0.051,-0.359 0.002,-0.375 -1.147,-0.375 h -1.199 l 0.127,-0.875 c 0.197,-1.358 0.185,-1.527 -0.106,-1.587 -0.182,-0.037 -0.541,0.347 -1.084,1.16 m -8.073,1.19 c -4.85,1.348 -6.779,9.159 -2.605,10.545 1.528,0.508 4,10e-4 5.287,-1.084 0.901,-0.759 0.482,-0.978 -0.766,-0.4 -2.798,1.295 -4.737,0.408 -4.737,-2.168 v -0.896 l 1.291,-0.184 c 3.57,-0.508 5.625,-1.858 5.625,-3.696 0,-1.62 -2.057,-2.683 -4.095,-2.117 m 21,0.007 c -3.327,0.897 -5.516,4.865 -4.628,8.391 0.635,2.521 4.417,3.167 7.113,1.215 1.242,-0.9 0.891,-1.277 -0.52,-0.558 -2.658,1.353 -4.748,0.39 -4.777,-2.2 l -0.009,-0.841 1.625,-0.263 c 3.535,-0.572 5.566,-2.042 5.323,-3.851 -0.208,-1.552 -2.127,-2.433 -4.127,-1.893 M 285.5,98.28 c -0.797,0.278 -1.682,0.842 -2.396,1.525 l -0.812,0.778 0.101,-1.041 0.102,-1.042 h -1.581 c -1.729,0 -2.277,0.353 -0.908,0.584 0.519,0.088 0.655,0.177 0.596,0.39 -0.042,0.152 -0.164,0.839 -0.27,1.526 -0.106,0.688 -0.449,2.661 -0.762,4.385 -0.72,3.962 -0.751,3.615 0.316,3.615 h 0.887 l 0.285,-1.625 c 0.989,-5.626 0.898,-5.315 1.826,-6.243 1.532,-1.532 2.638,-1.818 2.975,-0.769 0.409,1.271 0.683,1.042 0.98,-0.816 0.211,-1.323 -0.163,-1.677 -1.339,-1.267 m 8.598,0.149 c -0.725,0.266 -1.603,0.889 -2.325,1.651 l -0.477,0.503 0.086,-1.041 0.086,-1.042 h -1.567 c -1.713,0 -2.259,0.354 -0.901,0.583 0.573,0.097 0.655,0.163 0.587,0.473 -0.044,0.198 -0.272,1.486 -0.507,2.861 -0.235,1.375 -0.574,3.272 -0.754,4.216 -0.468,2.466 -0.492,2.367 0.555,2.367 h 0.882 l 0.471,-2.708 c 0.772,-4.443 0.697,-4.207 1.644,-5.154 1.509,-1.51 2.631,-1.82 2.934,-0.812 0.391,1.308 0.711,1.084 1.006,-0.704 0.253,-1.533 -0.108,-1.784 -1.72,-1.193 m 6.249,-0.007 c -6.09,1.7 -6.119,11.148 -0.033,10.706 6.246,-0.454 7.811,-10.317 1.728,-10.884 -0.437,-0.041 -1.197,0.039 -1.695,0.178 m 13.467,-0.025 c -0.934,0.334 -1.751,0.895 -2.413,1.656 l -0.605,0.697 0.115,-1.125 0.116,-1.125 h -1.514 c -1.622,0 -2.184,0.359 -0.93,0.594 0.647,0.122 0.656,0.151 0.412,1.425 -0.094,0.494 -0.432,2.435 -0.751,4.314 -0.319,1.879 -0.619,3.586 -0.665,3.792 -0.081,0.354 -0.033,0.375 0.831,0.375 0.815,0 0.926,-0.042 1,-0.375 0.149,-0.669 0.565,-3 0.855,-4.792 l 0.284,-1.75 1.026,-1.018 c 1.602,-1.589 2.543,-1.774 2.903,-0.572 0.293,0.976 0.566,0.771 0.834,-0.624 0.335,-1.745 0.049,-2.025 -1.498,-1.472 m 5.853,1.103 v 0.667 H 326.333 333 V 99.5 98.833 h -6.667 -6.666 V 99.5 m -65.346,0.106 c 1.175,1.494 -0.723,3.531 -3.696,3.965 -0.926,0.136 -0.997,-0.044 -0.51,-1.276 1.048,-2.653 3.169,-4.008 4.206,-2.689 m 21.032,-0.087 c 1.331,1.332 -0.773,3.624 -3.735,4.068 -0.911,0.136 -0.934,0.082 -0.507,-1.182 0.859,-2.545 3.075,-4.052 4.242,-2.886 m 27.623,0.07 c 1.509,1.269 1.034,5.685 -0.816,7.584 -3.152,3.237 -5.813,-0.81 -3.637,-5.531 1.029,-2.234 3.103,-3.189 4.453,-2.053 m 16.691,5.496 v 0.752 l 6.625,-0.043 6.625,-0.044 0.051,-0.708 0.051,-0.709 h -6.676 -6.676 v 0.752 m 68.599,0.299 c -0.625,0.458 0.04,1.591 0.692,1.181 0.409,-0.258 0.456,-0.7 0.114,-1.077 -0.344,-0.38 -0.415,-0.389 -0.806,-0.104 m -291.068,1.574 c -0.203,1.158 0.016,1.536 0.382,0.66 0.139,-0.334 0.253,-0.675 0.253,-0.758 0,-0.187 0.821,-0.36 1.71,-0.36 0.661,0 0.666,0.005 0.575,0.542 -1.273,7.433 -1.267,7.409 -2.105,7.488 -0.314,0.029 -0.602,0.149 -0.641,0.267 -0.055,0.168 0.373,0.203 1.987,0.167 1.927,-0.044 2.837,-0.306 1.506,-0.434 -0.749,-0.072 -0.778,-0.241 -0.388,-2.312 0.186,-0.991 0.46,-2.551 0.608,-3.468 0.382,-2.36 0.327,-2.25 1.135,-2.248 1.229,0.004 1.423,0.119 1.48,0.877 0.065,0.882 0.395,0.987 0.536,0.17 0.06,-0.348 0.15,-0.839 0.2,-1.091 l 0.09,-0.458 h -3.58 -3.58 l -0.168,0.958 M 387,108.333 c 0,0.092 0.15,0.167 0.333,0.167 0.439,0 0.432,0.28 -0.083,3.067 -0.557,3.015 -0.618,2.766 0.677,2.766 0.686,0 1.054,-0.062 0.99,-0.166 -0.057,-0.092 -0.286,-0.167 -0.51,-0.167 -0.496,0 -0.496,0.123 0.01,-2.833 0.554,-3.243 0.595,-3 -0.5,-3 -0.505,0 -0.917,0.075 -0.917,0.166 M 1.111,111.444 c -0.261,0.262 -0.069,0.508 0.508,0.652 l 0.619,0.154 1.09,7.25 c 1.389,9.246 1.012,9.029 4.096,2.347 1.27,-2.751 2.338,-4.973 2.374,-4.938 0.035,0.036 0.416,2.264 0.845,4.953 0.714,4.478 0.808,4.892 1.117,4.937 0.393,0.056 0.196,0.43 2.917,-5.549 1.084,-2.383 2.449,-5.383 3.034,-6.667 l 1.064,-2.333 0.696,-0.149 c 0.513,-0.109 0.696,-0.229 0.696,-0.458 0,-0.286 -0.167,-0.31 -2.167,-0.31 -2.02,0 -2.167,0.022 -2.167,0.318 0,0.255 0.165,0.34 0.834,0.432 0.458,0.063 0.833,0.166 0.833,0.229 0,0.112 -1.806,4.288 -2.568,5.938 -0.212,0.458 -0.71,1.583 -1.107,2.5 -0.804,1.856 -0.794,1.837 -0.905,1.726 -0.044,-0.044 -0.429,-2.251 -0.855,-4.903 -0.751,-4.672 -0.976,-5.519 -1.342,-5.04 -0.091,0.119 -1.17,2.405 -2.398,5.079 -1.228,2.674 -2.281,4.832 -2.34,4.795 -0.059,-0.036 -0.148,-0.386 -0.198,-0.778 -0.05,-0.392 -0.36,-2.472 -0.689,-4.623 -0.778,-5.087 -0.79,-4.791 0.194,-4.936 0.726,-0.107 1.032,-0.287 1.039,-0.612 0.003,-0.154 -5.066,-0.168 -5.22,-0.014 m 41.056,0.193 c 0,0.212 0.187,0.351 0.615,0.459 l 0.615,0.154 0.864,5.833 c 1.319,8.904 1.272,8.659 1.669,8.716 0.28,0.041 0.448,-0.185 0.935,-1.25 2.704,-5.923 4.045,-8.734 4.095,-8.585 0.032,0.097 0.414,2.338 0.849,4.981 0.983,5.979 0.976,5.972 2.433,2.771 6.18,-13.581 5.592,-12.413 6.35,-12.625 1.548,-0.435 0.945,-0.758 -1.413,-0.758 -2.024,0 -2.179,0.023 -2.179,0.315 0,0.244 0.166,0.339 0.746,0.426 0.41,0.062 0.782,0.17 0.826,0.242 0.081,0.131 -4.145,9.819 -4.392,10.069 -0.153,0.155 -0.445,-1.365 -1.195,-6.218 -0.713,-4.62 -0.729,-4.631 -2.155,-1.5 -1.103,2.423 -1.632,3.577 -2.409,5.25 -0.341,0.733 -0.733,1.614 -0.872,1.958 -0.228,0.567 -0.549,0.845 -0.549,0.477 0,-0.081 -0.295,-2.162 -0.655,-4.625 -0.36,-2.462 -0.679,-4.701 -0.708,-4.975 -0.051,-0.474 -0.014,-0.506 0.779,-0.675 0.558,-0.119 0.851,-0.271 0.887,-0.461 0.05,-0.256 -0.189,-0.283 -2.541,-0.283 -2.401,0 -2.595,0.023 -2.595,0.304 m 40.5,0.011 c 0,0.244 0.165,0.339 0.736,0.425 0.405,0.06 0.805,0.2 0.89,0.31 0.142,0.186 2.21,6.083 2.208,6.295 -0.001,0.053 -0.643,0.915 -1.428,1.917 -0.786,1.002 -1.963,2.515 -2.617,3.362 -1.016,1.316 -1.275,1.555 -1.781,1.64 -1.015,0.17 -1.175,0.249 -1.175,0.581 0,0.451 4.607,0.504 4.78,0.055 0.122,-0.319 -0.208,-0.559 -0.78,-0.566 -0.939,-0.012 -0.852,-0.216 1.249,-2.919 1.136,-1.462 2.127,-2.678 2.2,-2.702 0.074,-0.023 0.56,1.191 1.08,2.698 1.039,3.013 1.056,2.781 -0.221,2.996 -0.613,0.103 -0.985,0.536 -0.59,0.687 0.636,0.244 5.529,-0.015 5.583,-0.296 0.037,-0.194 -0.083,-0.314 -0.373,-0.375 -0.236,-0.049 -0.604,-0.125 -0.818,-0.169 -0.359,-0.074 -2.943,-6.704 -2.943,-7.551 0,-0.2 3.96,-5.327 4.381,-5.671 0.111,-0.091 0.539,-0.231 0.951,-0.312 0.5,-0.098 0.767,-0.242 0.804,-0.433 0.077,-0.401 -4.374,-0.442 -4.528,-0.042 -0.111,0.289 -0.034,0.345 0.683,0.499 0.722,0.155 0.702,0.226 -0.463,1.719 -0.552,0.708 -1.282,1.644 -1.622,2.079 -0.81,1.04 -0.745,1.094 -1.526,-1.25 -0.837,-2.513 -0.84,-2.414 0.07,-2.55 0.584,-0.088 0.75,-0.182 0.75,-0.427 0,-0.296 -0.167,-0.315 -2.75,-0.315 -2.584,0 -2.75,0.019 -2.75,0.315 M 122,111.645 c 0,0.248 0.169,0.334 0.826,0.422 1.082,0.143 1.059,0.044 0.592,2.617 -0.223,1.228 -0.711,3.995 -1.085,6.149 -0.373,2.154 -0.714,4.08 -0.756,4.279 -0.051,0.242 -0.242,0.393 -0.577,0.458 -0.275,0.053 -0.725,0.14 -1,0.193 -0.35,0.068 -0.5,0.194 -0.5,0.419 0,0.313 0.165,0.321 5.947,0.278 l 5.947,-0.043 0.462,-1.917 c 0.254,-1.054 0.465,-1.935 0.47,-1.958 0.004,-0.023 -0.168,-0.042 -0.383,-0.042 -0.331,0 -0.461,0.185 -0.855,1.208 -0.256,0.665 -0.549,1.3 -0.652,1.411 -0.227,0.247 -6.504,0.513 -6.641,0.281 -0.082,-0.138 0.771,-5.546 0.95,-6.025 0.056,-0.151 0.632,-0.208 2.083,-0.208 h 2.005 v 0.916 c 0,0.943 0.506,1.374 0.733,0.625 0.101,-0.332 0.767,-4.021 0.767,-4.249 0,-0.547 -0.74,0.051 -1.031,0.833 l -0.325,0.875 h -1.989 c -2.241,0 -2.16,0.061 -1.828,-1.385 0.089,-0.384 0.28,-1.374 0.427,-2.199 0.146,-0.825 0.3,-1.668 0.342,-1.875 0.084,-0.406 2.498,-0.534 5.047,-0.268 l 1.024,0.107 v 1.227 c 0,1.272 0.519,1.866 0.743,0.851 0.099,-0.445 0.59,-3.133 0.59,-3.227 0,-0.035 -2.55,-0.065 -5.666,-0.065 -5.426,0 -5.667,0.014 -5.667,0.312 m -52.548,2.792 c -0.065,0.065 -0.119,1.041 -0.119,2.169 v 2.051 l -2.208,0.046 -2.208,0.047 -0.05,0.958 -0.05,0.959 h 2.258 2.258 v 2.166 2.167 h 1 1 v -2.167 -2.166 h 2.167 2.167 v -1 -1 h -2.162 -2.162 l -0.046,-2.125 -0.047,-2.125 -0.84,-0.049 c -0.462,-0.028 -0.893,0.004 -0.958,0.069 M 154,116.049 c -2.561,0.728 -3.944,3.473 -2.253,4.472 l 0.57,0.336 -1.033,0.533 c -4.256,2.197 -1.541,6.859 2.782,4.777 1.096,-0.528 2.77,-2.102 2.456,-2.31 -0.163,-0.108 -0.418,0.039 -0.89,0.511 -1.64,1.64 -4.101,1.773 -4.389,0.237 -0.368,-1.964 1.431,-3.81 3.127,-3.208 0.977,0.347 1.696,0.07 1.599,-0.616 -0.057,-0.395 -0.302,-0.422 -1.814,-0.193 -1.382,0.209 -1.74,-0.869 -0.863,-2.6 0.953,-1.881 2.747,-2.24 3.275,-0.655 0.326,0.982 1.338,1.124 1.739,0.245 0.567,-1.245 -2.043,-2.172 -4.306,-1.529 m -129.5,0.868 v 0.75 h 6.583 6.584 v -0.75 -0.75 H 31.083 24.5 v 0.75 m 84.364,1.619 c -0.158,0.158 0.077,0.482 1.088,1.5 l 1.29,1.297 -1.297,1.305 c -1.155,1.162 -1.268,1.33 -1.029,1.529 0.235,0.194 0.422,0.071 1.472,-0.972 1.461,-1.452 1.262,-1.452 2.732,0.008 1.123,1.116 1.231,1.184 1.485,0.93 0.254,-0.254 0.178,-0.366 -1.036,-1.537 l -1.31,-1.264 1.297,-1.304 c 1.154,-1.161 1.267,-1.329 1.028,-1.528 -0.235,-0.195 -0.422,-0.071 -1.472,0.972 -1.466,1.456 -1.358,1.455 -2.635,0.028 -1.074,-1.199 -1.264,-1.313 -1.613,-0.964 m 33.17423,1.60417 c -2.31312,0.31143 -1.23812,2.67196 0.0956,2.53688 1.70395,-0.032 1.62725,-2.6409 -0.0956,-2.53688 M 339.508,120.407 c -0.264,0.318 -0.163,0.931 0.191,1.152 0.332,0.209 0.968,-0.263 0.968,-0.718 0,-0.608 -0.774,-0.898 -1.159,-0.434 m 16.004,0.052 c -2.347,1.196 -2.279,7.664 0.092,8.789 1.88,0.893 3.537,-0.44 3.869,-3.111 0.524,-4.223 -1.402,-6.984 -3.961,-5.678 m 1.721,0.308 c 1.337,0.512 1.576,6.454 0.312,7.773 -1.443,1.506 -2.462,-0.096 -2.462,-3.873 0,-3.25 0.671,-4.468 2.15,-3.9 M 24.5,122.5 v 0.667 h 6.583 6.584 V 122.5 121.833 H 31.083 24.5 v 0.667 m 313.833,0.667 c 0,0.091 0.115,0.166 0.256,0.166 0.443,0 0.444,0.403 0.005,2.872 -0.593,3.34 -0.632,3.128 0.573,3.128 0.555,0 1,-0.074 1,-0.166 0,-0.092 -0.153,-0.167 -0.339,-0.167 -0.543,0 -0.555,-0.359 -0.096,-2.962 0.578,-3.278 0.617,-3.038 -0.482,-3.038 -0.504,0 -0.917,0.075 -0.917,0.167 m 5,0.503 v 0.503 l 3.875,-0.045 3.875,-0.045 0.053,-0.458 0.053,-0.458 h -3.928 -3.928 v 0.503 m 0,3.247 v 0.416 h 3.917 3.917 v -0.416 -0.417 h -3.917 -3.917 v 0.417" stroke="none" fill="#000000"></path></g></svg>